<?xml version="1.0" encoding="UTF-8" standalone="no"?>
<!DOCTYPE svg PUBLIC "-//W3C//DTD SVG 1.1//EN" "http://www.w3.org/Graphics/SVG/1.1/DTD/svg11.dtd">
<svg width="100%" height="100%" viewBox="0 0 2400 750" version="1.1" xmlns="http://www.w3.org/2000/svg" xmlns:xlink="http://www.w3.org/1999/xlink" xml:space="preserve" xmlns:serif="http://www.serif.com/" style="fill-rule:evenodd;clip-rule:evenodd;stroke-linejoin:round;stroke-miterlimit:2;">
    <g id="Tap-Handle" serif:id="Tap Handle" transform="matrix(0.826365,0,0,0.826365,61.5766,64.0136)">
        <g transform="matrix(4.16667,0,0,4.16667,-885.929,22.6121)">
            <path d="M256.13,61.884C255.81,62.393 255.513,62.903 255.229,63.437L255.229,106.171C255.513,106.704 255.81,107.214 256.13,107.724L256.13,61.884Z" style="fill:white;fill-rule:nonzero;"/>
        </g>
        <g transform="matrix(4.16667,0,0,4.16667,-885.929,22.6121)">
            <path d="M262.058,54.129C261.75,54.461 261.441,54.781 261.157,55.113L261.157,114.495C261.441,114.827 261.75,115.147 262.058,115.479L262.058,54.129Z" style="fill:white;fill-rule:nonzero;"/>
        </g>
        <g transform="matrix(4.16667,0,0,4.16667,-885.929,22.6121)">
            <path d="M267.987,48.924C267.679,49.137 267.382,49.362 267.086,49.599L267.086,120.008C267.382,120.246 267.679,120.471 267.987,120.684L267.987,48.924Z" style="fill:white;fill-rule:nonzero;"/>
        </g>
        <g transform="matrix(4.16667,0,0,4.16667,-885.929,22.6121)">
            <path d="M273.916,45.248C273.608,45.402 273.311,45.556 273.015,45.722L273.015,123.886C273.311,124.052 273.608,124.205 273.916,124.36L273.916,45.248Z" style="fill:white;fill-rule:nonzero;"/>
        </g>
        <g transform="matrix(4.16667,0,0,4.16667,-885.929,22.6121)">
            <path d="M279.845,42.722C279.548,42.817 279.24,42.924 278.943,43.042L278.943,126.565C279.24,126.684 279.548,126.79 279.845,126.886L279.845,42.722Z" style="fill:white;fill-rule:nonzero;"/>
        </g>
        <g transform="matrix(4.16667,0,0,4.16667,-885.929,22.6121)">
            <path d="M285.773,41.145C285.465,41.204 285.168,41.263 284.872,41.323L284.872,128.285C285.168,128.344 285.465,128.403 285.773,128.462L285.773,41.145Z" style="fill:white;fill-rule:nonzero;"/>
        </g>
        <g transform="matrix(4.16667,0,0,4.16667,-885.929,22.6121)">
            <path d="M291.702,40.41C291.406,40.422 291.097,40.446 290.801,40.469L290.801,129.139C291.097,129.162 291.406,129.186 291.702,129.198L291.702,40.41Z" style="fill:white;fill-rule:nonzero;"/>
        </g>
        <g transform="matrix(4.16667,0,0,4.16667,-885.929,22.6121)">
            <path d="M297.631,40.469C297.334,40.446 297.026,40.422 296.729,40.41L296.729,129.198C297.026,129.186 297.334,129.162 297.631,129.139L297.631,40.469Z" style="fill:white;fill-rule:nonzero;"/>
        </g>
        <g transform="matrix(4.16667,0,0,4.16667,-885.929,22.6121)">
            <path d="M303.56,41.323C303.263,41.263 302.967,41.204 302.658,41.145L302.658,128.462C302.967,128.403 303.263,128.344 303.56,128.285L303.56,41.323Z" style="fill:white;fill-rule:nonzero;"/>
        </g>
        <g transform="matrix(4.16667,0,0,4.16667,-885.929,22.6121)">
            <path d="M309.488,43.042C309.192,42.924 308.883,42.817 308.587,42.722L308.587,126.886C308.883,126.79 309.192,126.684 309.488,126.565L309.488,43.042Z" style="fill:white;fill-rule:nonzero;"/>
        </g>
        <g transform="matrix(4.16667,0,0,4.16667,-885.929,22.6121)">
            <path d="M315.417,45.722C315.121,45.556 314.824,45.402 314.516,45.248L314.516,124.36C314.824,124.205 315.121,124.052 315.417,123.886L315.417,45.722Z" style="fill:white;fill-rule:nonzero;"/>
        </g>
        <g transform="matrix(4.16667,0,0,4.16667,-885.929,22.6121)">
            <path d="M321.346,49.599C321.049,49.362 320.752,49.137 320.444,48.924L320.444,120.684C320.752,120.471 321.049,120.246 321.346,120.008L321.346,49.599Z" style="fill:white;fill-rule:nonzero;"/>
        </g>
        <g transform="matrix(4.16667,0,0,4.16667,-885.929,22.6121)">
            <path d="M327.274,55.113C326.99,54.781 326.681,54.461 326.373,54.129L326.373,115.479C326.681,115.147 326.99,114.827 327.274,114.495L327.274,55.113Z" style="fill:white;fill-rule:nonzero;"/>
        </g>
        <g transform="matrix(4.16667,0,0,4.16667,-885.929,22.6121)">
            <path d="M333.203,63.437C332.918,62.903 332.622,62.393 332.302,61.884L332.302,107.724C332.622,107.214 332.918,106.704 333.203,106.171L333.203,63.437Z" style="fill:white;fill-rule:nonzero;"/>
        </g>
        <g transform="matrix(4.16667,0,0,4.16667,-885.929,22.6121)">
            <path d="M361.295,98.07C361.413,97.536 361.848,97.07 362.154,96.583C362.194,96.519 362.334,96.505 362.431,96.491C363.43,96.344 364.258,95.864 364.986,95.187C365.903,94.332 366.545,93.281 367.092,92.172C368.104,90.12 368.909,87.998 369.171,85.705C369.213,85.34 369.201,84.97 369.216,84.522C368.874,84.722 368.615,84.854 368.378,85.017C367.913,85.338 367.428,85.639 367.008,86.012C364.085,88.603 362.346,91.81 361.978,95.73C361.949,96.034 361.791,96.326 361.693,96.624C361.647,96.611 361.602,96.596 361.556,96.583C361.563,96.512 361.565,96.442 361.577,96.372C362.066,93.328 362.25,90.265 362.153,87.183C362.147,87.009 362.231,86.827 362.292,86.655C362.523,85.999 362.883,85.562 363.611,85.282C364.702,84.864 365.37,83.887 365.898,82.868C367.29,80.181 367.567,77.318 367.164,74.362C367.102,73.911 366.961,73.471 366.839,72.951C366.652,73.127 366.533,73.227 366.427,73.341C365.468,74.365 364.704,75.523 364.052,76.761C362.656,79.411 361.984,82.192 362.469,85.2C362.519,85.511 362.336,85.859 362.261,86.189C362.132,86.138 362.108,86.116 362.105,86.091C362.09,85.962 362.08,85.831 362.071,85.701C361.856,82.803 361.451,79.937 360.69,77.126C360.653,76.989 360.707,76.78 360.795,76.663C361.335,75.955 361.587,75.154 361.613,74.275C361.646,73.151 361.376,72.089 360.917,71.072C360.135,69.337 358.827,67.961 357.781,66.399C357.728,66.443 357.698,66.457 357.687,66.48C357.649,66.558 357.612,66.637 357.586,66.72C357.149,68.103 356.936,69.518 357.058,70.967C357.258,73.358 358.15,75.395 360.147,76.853C360.283,76.952 360.375,77.148 360.427,77.317C361.111,79.515 361.44,81.781 361.657,84.065C361.663,84.128 361.64,84.194 361.624,84.307C361.386,84.072 361.013,84.016 361.108,83.593C361.397,82.309 361.058,81.151 360.246,80.174C359.726,79.548 359.117,78.934 358.422,78.531C357.119,77.773 355.724,77.171 354.362,76.502C354.314,76.619 354.294,76.645 354.294,76.671C354.292,76.743 354.293,76.816 354.299,76.888C354.407,78.209 354.753,79.463 355.437,80.6C356.466,82.313 357.9,83.528 359.905,83.917C360.48,84.029 361.017,84.09 361.436,84.571C361.592,84.75 361.731,84.876 361.747,85.135C361.906,87.777 361.833,90.411 361.543,93.04C361.53,93.159 361.496,93.276 361.468,93.413C361.042,93.097 360.915,92.8 361.124,92.287C361.319,91.807 361.383,91.241 361.372,90.717C361.347,89.52 360.796,88.519 360.039,87.622C359.114,86.523 357.956,85.697 356.813,84.851C356.386,84.535 355.964,84.213 355.504,83.866C355.474,83.988 355.446,84.054 355.443,84.122C355.373,85.9 355.585,87.634 356.385,89.245C357.131,90.747 358.142,92.027 359.769,92.646C360.348,92.866 360.856,93.071 361.188,93.658C361.333,93.917 361.42,94.112 361.38,94.397C360.944,97.492 360.228,100.52 359.241,103.486C359.19,103.639 359.126,103.789 359.057,103.972C358.728,103.554 358.686,103.238 358.984,102.803C359.901,101.463 360.044,99.98 359.605,98.433C359.207,97.032 358.464,95.805 357.637,94.625C357.017,93.741 356.386,92.865 355.758,91.983C355.709,92.02 355.68,92.033 355.667,92.055C355.638,92.105 355.61,92.157 355.594,92.212C354.984,94.303 354.74,96.421 355.249,98.568C355.704,100.482 356.536,102.156 358.269,103.278C358.524,103.444 358.594,103.926 358.701,104.276C358.762,104.478 358.79,104.733 358.721,104.924C357.88,107.276 356.845,109.544 355.642,111.733C355.114,112.692 354.542,113.625 353.935,114.664C353.778,114.126 353.702,113.77 354.105,113.393C354.468,113.055 354.755,112.612 354.998,112.171C355.973,110.395 356.131,108.482 355.671,106.554C355.273,104.879 354.703,103.245 354.208,101.593C354.144,101.38 354.076,101.168 353.993,100.899C353.905,101.014 353.859,101.065 353.823,101.124C352.654,103.049 351.878,105.112 351.739,107.374C351.622,109.283 351.761,111.168 352.854,112.817C353.268,113.442 353.566,114.032 353.523,114.799C353.508,115.081 353.504,115.317 353.338,115.561C351.796,117.834 350.106,119.988 348.219,121.984C347.721,122.51 347.202,123.016 346.693,123.531C346.646,123.502 346.598,123.474 346.55,123.445C346.678,123.13 346.721,122.636 346.947,122.529C347.912,122.072 348.507,121.301 349.009,120.422C349.848,118.952 350.09,117.33 350.068,115.679C350.044,113.94 349.907,112.204 349.819,110.466C349.804,110.168 349.788,109.87 349.77,109.541C349.69,109.589 349.651,109.604 349.622,109.631C349.557,109.688 349.491,109.746 349.434,109.811C347.704,111.773 346.458,113.983 345.97,116.58C345.684,118.104 345.52,119.644 345.994,121.146C346.266,122.006 346.469,122.828 346.184,123.71C346.175,123.737 346.188,123.771 346.177,123.796C346.112,123.933 346.075,124.101 345.972,124.198C343.359,126.628 340.497,128.717 337.368,130.435C337.275,130.487 337.169,130.515 337.044,130.564C337.183,130.044 337.39,129.69 337.967,129.642C338.237,129.619 338.514,129.446 338.752,129.288C340.009,128.455 341.005,127.394 341.647,126.008C342.54,124.081 342.968,122.024 343.398,119.966C343.544,119.266 343.692,118.565 343.851,117.813C343.694,117.894 343.588,117.939 343.492,118C341.368,119.348 339.667,121.1 338.492,123.332C337.667,124.899 337.057,126.547 337.057,128.343C337.057,129.141 337.017,129.899 336.578,130.584C336.461,130.767 336.323,130.976 336.141,131.068C333.455,132.439 330.641,133.464 327.697,134.127C327.506,134.17 327.324,134.253 327.137,134.317C327.106,134.244 327.075,134.17 327.044,134.096C327.283,133.906 327.527,133.545 327.76,133.552C329.552,133.601 330.953,132.817 332.143,131.584C333.23,130.456 334.006,129.108 334.713,127.722C335.384,126.408 336.041,125.088 336.703,123.77C336.681,123.703 336.659,123.635 336.637,123.568C336.512,123.641 336.394,123.732 336.261,123.783C335.692,123.999 335.099,124.162 334.551,124.419C331.143,126.021 328.737,128.546 327.601,132.174C327.386,132.862 327.179,133.525 326.697,134.064C326.557,134.221 326.351,134.381 326.153,134.415C323.118,134.947 320.07,135.022 317.016,134.58C316.839,134.555 316.666,134.516 316.491,134.483C316.715,134.284 316.764,133.908 317.177,134.066C317.601,134.228 318.06,134.377 318.506,134.386C319.911,134.414 321.232,134.043 322.309,133.128C323.466,132.146 324.558,131.085 325.639,130.018C326.368,129.299 327.028,128.511 327.75,127.72C327.604,127.684 327.511,127.652 327.414,127.64C323.638,127.14 319.298,129.298 317.413,132.621C317.097,133.177 316.775,133.711 316.271,134.134C316.028,134.338 315.826,134.387 315.532,134.328C313.423,133.897 311.371,133.288 309.4,132.415C308.917,132.202 308.697,132.287 308.397,132.805C308.465,132.85 308.53,132.906 308.605,132.941C310.426,133.786 312.303,134.477 314.269,134.887C314.912,135.021 315.215,135.51 315.631,135.891C315.687,135.942 315.682,136.081 315.671,136.175C315.522,137.558 315.96,138.766 316.833,139.803C318.715,142.041 321.181,143.273 324.017,143.803C324.571,143.906 325.156,143.848 325.855,143.868C325.603,143.152 325.437,142.597 325.215,142.064C324.27,139.793 322.846,137.918 320.666,136.693C319.331,135.943 317.859,135.719 316.358,135.602C316.133,135.584 315.917,135.435 315.697,135.347C315.714,135.304 315.732,135.26 315.75,135.216C315.863,135.231 315.977,135.243 316.09,135.261C318.828,135.706 321.577,135.761 324.325,135.399C324.935,135.319 325.473,135.362 325.968,135.709C326.112,135.81 326.263,135.984 326.295,136.147C326.457,136.971 326.825,137.673 327.401,138.278C328.132,139.042 329.043,139.51 330.013,139.877C332.233,140.718 334.519,140.933 336.854,140.524C337.295,140.447 337.715,140.249 338.22,140.083C337.868,139.597 337.609,139.195 337.307,138.829C335.512,136.655 333.3,135.197 330.43,134.916C329.186,134.795 327.976,135.034 326.773,135.328C326.584,135.374 326.369,135.311 326.166,135.298C326.167,135.254 326.169,135.211 326.17,135.167C326.209,135.151 326.248,135.129 326.288,135.121C329.357,134.552 332.286,133.557 335.135,132.291C335.558,132.103 336.125,132.231 336.625,132.235C336.692,132.235 336.775,132.358 336.82,132.44C337.179,133.098 337.719,133.568 338.356,133.941C339.211,134.444 340.142,134.744 341.125,134.754C343.812,134.782 346.318,134.103 348.603,132.674C348.947,132.458 349.236,132.155 349.575,131.872C349.436,131.757 349.372,131.701 349.305,131.649C349.225,131.586 349.144,131.525 349.06,131.467C346.851,129.938 344.408,129.455 341.772,129.854C340.081,130.11 338.553,130.799 337.085,131.642C336.84,131.784 336.597,131.939 336.292,131.715C336.369,131.672 336.43,131.635 336.493,131.603C339.513,130.059 342.316,128.187 344.952,126.056C345.292,125.782 345.709,125.603 346.092,125.382C346.563,125.111 346.934,125.105 347.424,125.496C348.459,126.324 349.72,126.351 350.957,126.092C354.02,125.452 356.613,123.909 358.881,121.793C359.174,121.519 359.384,121.157 359.659,120.802C359.447,120.728 359.34,120.685 359.23,120.653C359.105,120.616 358.979,120.583 358.851,120.556C356.771,120.099 354.729,120.308 352.708,120.897C350.516,121.536 348.724,122.804 347.139,124.404C346.978,124.566 346.775,124.686 346.591,124.826C346.561,124.684 346.59,124.616 346.64,124.57C348.979,122.399 350.969,119.934 352.823,117.345C353.132,116.913 353.7,116.663 354.162,116.351C354.226,116.308 354.379,116.367 354.478,116.41C355.137,116.692 355.819,116.756 356.523,116.645C357.517,116.49 358.417,116.094 359.249,115.55C361.885,113.826 364.089,111.683 365.615,108.894C365.687,108.763 365.735,108.62 365.796,108.479C365.714,108.448 365.688,108.429 365.661,108.429C365.545,108.43 365.43,108.434 365.314,108.44C362.604,108.577 360.204,109.55 358.048,111.156C356.449,112.347 355.297,113.922 354.294,115.621C354.157,115.853 353.921,116.028 353.731,116.229C353.696,116.197 353.661,116.164 353.626,116.131C353.65,116.083 353.669,116.033 353.698,115.989C355.376,113.39 356.874,110.695 358.184,107.89C358.415,107.394 359.002,107.065 359.43,106.664C359.463,106.634 359.542,106.638 359.597,106.644C361.312,106.838 362.634,106.056 363.781,104.909C365.533,103.158 366.871,101.108 367.92,98.877C368.289,98.091 368.523,97.241 368.825,96.404C368.674,96.374 368.644,96.358 368.619,96.364C366.011,97.082 363.826,98.45 362.129,100.576C360.873,102.151 360.044,103.945 359.37,105.826C359.25,106.16 359.011,106.452 358.826,106.763C358.786,106.743 358.745,106.722 358.704,106.702C358.721,106.623 358.727,106.541 358.756,106.468C359.859,103.746 360.664,100.937 361.295,98.07Z" style="fill:white;fill-rule:nonzero;"/>
        </g>
        <g transform="matrix(4.16667,0,0,4.16667,-885.929,22.6121)">
            <path d="M279.032,132.415C277.061,133.288 275.008,133.897 272.899,134.328C272.605,134.387 272.403,134.338 272.16,134.134C271.657,133.711 271.335,133.177 271.019,132.621C269.134,129.298 264.793,127.14 261.018,127.64C260.92,127.652 260.827,127.684 260.682,127.72C261.403,128.511 262.064,129.299 262.793,130.018C263.874,131.085 264.966,132.146 266.123,133.128C267.199,134.043 268.521,134.414 269.925,134.386C270.372,134.377 270.831,134.228 271.254,134.066C271.667,133.908 271.716,134.284 271.941,134.483C271.766,134.516 271.592,134.555 271.416,134.58C268.361,135.022 265.314,134.947 262.278,134.415C262.081,134.381 261.875,134.221 261.734,134.064C261.252,133.525 261.045,132.862 260.831,132.174C259.695,128.546 257.289,126.021 253.881,124.419C253.333,124.162 252.739,123.999 252.171,123.783C252.038,123.732 251.919,123.641 251.794,123.568C251.772,123.635 251.75,123.703 251.729,123.77C252.391,125.088 253.048,126.408 253.718,127.722C254.425,129.108 255.201,130.456 256.289,131.584C257.479,132.817 258.879,133.601 260.67,133.552C260.905,133.545 261.148,133.906 261.387,134.096C261.355,134.17 261.325,134.244 261.294,134.317C261.108,134.253 260.926,134.17 260.734,134.127C257.79,133.464 254.977,132.439 252.291,131.068C252.109,130.976 251.97,130.767 251.854,130.584C251.415,129.899 251.375,129.141 251.375,128.343C251.375,126.547 250.765,124.899 249.939,123.332C248.764,121.1 247.064,119.348 244.94,118C244.844,117.939 244.737,117.894 244.581,117.813C244.739,118.565 244.888,119.266 245.034,119.966C245.463,122.024 245.892,124.081 246.785,126.008C247.427,127.394 248.423,128.455 249.68,129.288C249.918,129.446 250.194,129.619 250.465,129.642C251.042,129.69 251.249,130.044 251.388,130.564C251.262,130.515 251.157,130.487 251.063,130.435C247.935,128.717 245.073,126.628 242.46,124.198C242.356,124.101 242.319,123.933 242.254,123.796C242.243,123.771 242.256,123.737 242.248,123.71C241.962,122.828 242.166,122.006 242.438,121.146C242.912,119.644 242.748,118.104 242.461,116.58C241.973,113.983 240.728,111.773 238.998,109.811C238.94,109.746 238.875,109.688 238.81,109.631C238.78,109.604 238.741,109.589 238.662,109.541C238.644,109.87 238.628,110.168 238.613,110.466C238.525,112.204 238.387,113.94 238.364,115.679C238.341,117.33 238.583,118.952 239.423,120.422C239.925,121.301 240.52,122.072 241.484,122.529C241.711,122.636 241.754,123.13 241.881,123.445C241.834,123.474 241.786,123.502 241.738,123.531C241.229,123.016 240.71,122.51 240.213,121.984C238.325,119.988 236.636,117.834 235.093,115.561C234.928,115.317 234.924,115.081 234.908,114.799C234.865,114.032 235.164,113.442 235.578,112.817C236.67,111.168 236.81,109.283 236.693,107.374C236.554,105.112 235.778,103.049 234.608,101.124C234.573,101.065 234.526,101.014 234.439,100.899C234.355,101.168 234.288,101.38 234.224,101.593C233.729,103.245 233.159,104.879 232.76,106.554C232.301,108.482 232.458,110.395 233.434,112.171C233.676,112.612 233.964,113.055 234.327,113.393C234.73,113.77 234.654,114.126 234.497,114.664C233.89,113.625 233.317,112.692 232.79,111.733C231.587,109.544 230.552,107.276 229.71,104.924C229.642,104.733 229.669,104.478 229.73,104.276C229.837,103.926 229.908,103.444 230.163,103.278C231.896,102.156 232.728,100.482 233.183,98.568C233.692,96.421 233.447,94.303 232.838,92.212C232.822,92.157 232.793,92.105 232.765,92.055C232.752,92.033 232.723,92.02 232.674,91.983C232.046,92.865 231.415,93.741 230.794,94.625C229.967,95.805 229.225,97.032 228.827,98.433C228.387,99.98 228.53,101.463 229.448,102.803C229.746,103.238 229.704,103.554 229.375,103.972C229.305,103.789 229.242,103.639 229.19,103.486C228.204,100.52 227.487,97.492 227.051,94.397C227.011,94.112 227.099,93.917 227.244,93.658C227.575,93.071 228.083,92.866 228.663,92.646C230.29,92.027 231.301,90.747 232.046,89.245C232.846,87.634 233.059,85.9 232.989,84.122C232.986,84.054 232.958,83.988 232.928,83.866C232.468,84.213 232.045,84.535 231.618,84.851C230.476,85.697 229.318,86.523 228.393,87.622C227.636,88.519 227.084,89.52 227.06,90.717C227.049,91.241 227.112,91.807 227.308,92.287C227.517,92.8 227.39,93.097 226.963,93.413C226.936,93.276 226.901,93.159 226.888,93.04C226.599,90.411 226.526,87.777 226.685,85.135C226.7,84.876 226.84,84.75 226.996,84.571C227.415,84.09 227.951,84.029 228.527,83.917C230.531,83.528 231.965,82.313 232.995,80.6C233.678,79.463 234.024,78.209 234.132,76.888C234.138,76.816 234.14,76.743 234.138,76.671C234.137,76.645 234.118,76.619 234.07,76.502C232.708,77.171 231.313,77.773 230.009,78.531C229.315,78.934 228.706,79.548 228.186,80.174C227.374,81.151 227.035,82.309 227.324,83.593C227.419,84.016 227.045,84.072 226.808,84.307C226.792,84.194 226.769,84.128 226.775,84.065C226.991,81.781 227.32,79.515 228.004,77.317C228.057,77.148 228.149,76.952 228.285,76.853C230.281,75.395 231.173,73.358 231.374,70.967C231.496,69.518 231.282,68.103 230.846,66.72C230.82,66.637 230.782,66.558 230.745,66.48C230.733,66.457 230.704,66.443 230.651,66.399C229.605,67.961 228.296,69.337 227.514,71.072C227.056,72.089 226.785,73.151 226.818,74.275C226.845,75.154 227.097,75.955 227.637,76.663C227.725,76.78 227.778,76.989 227.741,77.126C226.98,79.937 226.576,82.803 226.361,85.701C226.352,85.831 226.341,85.962 226.327,86.091C226.324,86.116 226.299,86.138 226.17,86.189C226.096,85.859 225.913,85.511 225.962,85.2C226.447,82.192 225.775,79.411 224.379,76.761C223.728,75.523 222.963,74.365 222.005,73.341C221.899,73.227 221.779,73.127 221.593,72.951C221.471,73.471 221.33,73.911 221.268,74.362C220.865,77.318 221.142,80.181 222.534,82.868C223.062,83.887 223.73,84.864 224.82,85.282C225.549,85.562 225.909,85.999 226.14,86.655C226.201,86.827 226.284,87.009 226.279,87.183C226.181,90.265 226.365,93.328 226.855,96.372C226.866,96.442 226.869,96.512 226.875,96.583C226.83,96.596 226.784,96.611 226.738,96.624C226.641,96.326 226.482,96.034 226.454,95.73C226.085,91.81 224.347,88.603 221.424,86.012C221.003,85.639 220.519,85.338 220.054,85.017C219.816,84.854 219.558,84.722 219.216,84.522C219.231,84.97 219.218,85.34 219.26,85.705C219.522,87.998 220.327,90.12 221.339,92.172C221.886,93.281 222.529,94.332 223.446,95.187C224.173,95.864 225.001,96.344 226,96.491C226.098,96.505 226.237,96.519 226.278,96.583C226.583,97.07 227.019,97.536 227.136,98.07C227.768,100.937 228.573,103.746 229.676,106.468C229.705,106.541 229.711,106.623 229.728,106.702C229.687,106.722 229.646,106.743 229.605,106.763C229.421,106.452 229.182,106.16 229.062,105.826C228.387,103.945 227.559,102.151 226.303,100.576C224.606,98.45 222.421,97.082 219.813,96.364C219.788,96.358 219.757,96.374 219.606,96.404C219.908,97.241 220.143,98.091 220.512,98.877C221.561,101.108 222.898,103.158 224.65,104.909C225.798,106.056 227.12,106.838 228.835,106.644C228.89,106.638 228.969,106.634 229.002,106.664C229.43,107.065 230.017,107.394 230.248,107.89C231.558,110.695 233.055,113.39 234.734,115.989C234.762,116.033 234.782,116.083 234.806,116.131C234.771,116.164 234.735,116.197 234.701,116.229C234.51,116.028 234.274,115.853 234.137,115.621C233.134,113.922 231.983,112.347 230.384,111.156C228.228,109.55 225.827,108.577 223.118,108.44C223.002,108.434 222.886,108.43 222.771,108.429C222.744,108.429 222.717,108.448 222.636,108.479C222.696,108.62 222.745,108.763 222.817,108.894C224.342,111.683 226.547,113.826 229.183,115.55C230.015,116.094 230.915,116.49 231.908,116.645C232.613,116.756 233.294,116.692 233.954,116.41C234.053,116.367 234.206,116.308 234.27,116.351C234.732,116.663 235.3,116.913 235.609,117.345C237.462,119.934 239.453,122.399 241.792,124.57C241.842,124.616 241.871,124.684 241.84,124.826C241.657,124.686 241.454,124.566 241.293,124.404C239.708,122.804 237.916,121.536 235.724,120.897C233.702,120.308 231.66,120.099 229.581,120.556C229.453,120.583 229.326,120.616 229.201,120.653C229.091,120.685 228.984,120.728 228.773,120.802C229.047,121.157 229.257,121.519 229.551,121.793C231.819,123.909 234.412,125.452 237.475,126.092C238.711,126.351 239.973,126.324 241.008,125.496C241.498,125.105 241.869,125.111 242.339,125.382C242.722,125.603 243.14,125.782 243.479,126.056C246.115,128.187 248.919,130.059 251.938,131.603C252.002,131.635 252.063,131.672 252.14,131.715C251.835,131.939 251.592,131.784 251.346,131.642C249.878,130.799 248.351,130.11 246.659,129.854C244.024,129.455 241.581,129.938 239.372,131.467C239.288,131.525 239.207,131.586 239.127,131.649C239.06,131.701 238.996,131.757 238.856,131.872C239.195,132.155 239.484,132.458 239.829,132.674C242.114,134.103 244.62,134.782 247.307,134.754C248.29,134.744 249.22,134.444 250.076,133.941C250.712,133.568 251.252,133.098 251.612,132.44C251.657,132.358 251.74,132.235 251.806,132.235C252.306,132.231 252.874,132.103 253.297,132.291C256.146,133.557 259.075,134.552 262.144,135.121C262.184,135.129 262.222,135.151 262.261,135.167C262.263,135.211 262.265,135.254 262.266,135.298C262.062,135.311 261.847,135.374 261.659,135.328C260.456,135.034 259.246,134.795 258.001,134.916C255.131,135.197 252.92,136.655 251.125,138.829C250.822,139.195 250.563,139.597 250.212,140.083C250.716,140.249 251.136,140.447 251.577,140.524C253.913,140.933 256.199,140.718 258.419,139.877C259.389,139.51 260.299,139.042 261.03,138.278C261.607,137.673 261.975,136.971 262.137,136.147C262.168,135.984 262.32,135.81 262.464,135.709C262.959,135.362 263.497,135.319 264.107,135.399C266.855,135.761 269.604,135.706 272.342,135.261C272.455,135.243 272.569,135.231 272.682,135.216C272.7,135.26 272.717,135.304 272.735,135.347C272.515,135.435 272.299,135.584 272.073,135.602C270.573,135.719 269.101,135.943 267.766,136.693C265.586,137.918 264.162,139.793 263.216,142.064C262.995,142.597 262.829,143.152 262.577,143.868C263.275,143.848 263.86,143.906 264.415,143.803C267.25,143.273 269.717,142.041 271.599,139.803C272.472,138.766 272.91,137.558 272.76,136.175C272.75,136.081 272.745,135.942 272.8,135.891C273.216,135.51 273.52,135.021 274.163,134.887C276.128,134.477 278.005,133.786 279.826,132.941C279.901,132.906 279.967,132.85 280.035,132.805C279.734,132.287 279.515,132.202 279.032,132.415Z" style="fill:white;fill-rule:nonzero;"/>
        </g>
        <g transform="matrix(4.16667,0,0,4.16667,-885.929,22.6121)">
            <path d="M302.465,136.326L301.735,148.908L286.697,148.908L285.966,136.326L285.684,131.464C285.267,131.385 284.855,131.305 284.438,131.213L284.72,136.111L285.537,150.136L302.895,150.136L303.711,136.111L303.994,131.213C303.576,131.305 303.165,131.385 302.748,131.464L302.465,136.326ZM277.343,9.307L278.834,34.946L279.117,39.844C279.516,39.708 279.92,39.574 280.326,39.457L280.043,34.59L278.644,10.535L309.788,10.535L308.388,34.59L308.106,39.457C308.511,39.574 308.916,39.708 309.315,39.844L309.598,34.946L311.089,9.307L277.343,9.307Z" style="fill:white;fill-rule:nonzero;"/>
        </g>
        <g transform="matrix(4.16667,0,0,4.16667,-885.929,22.6121)">
            <path d="M313.397,128.174C311.568,128.991 309.677,129.69 307.738,130.261C306.51,130.629 305.258,130.949 303.994,131.213C303.576,131.305 303.165,131.385 302.748,131.464C299.979,131.968 297.125,132.231 294.216,132.231C291.307,132.231 288.452,131.968 285.684,131.464C285.267,131.385 284.855,131.305 284.438,131.213C283.174,130.949 281.921,130.629 280.694,130.261C278.754,129.69 276.864,128.991 275.035,128.174C258.407,120.796 246.788,104.132 246.788,84.804C246.788,67.433 256.173,52.218 270.137,43.962C271.861,42.937 273.66,42.023 275.514,41.224C276.692,40.715 277.889,40.255 279.117,39.844C279.516,39.708 279.92,39.574 280.326,39.457C284.72,38.1 289.385,37.376 294.216,37.376C299.046,37.376 303.711,38.1 308.106,39.457C308.511,39.574 308.916,39.708 309.315,39.844C310.543,40.255 311.74,40.715 312.918,41.224C314.772,42.023 316.57,42.937 318.295,43.962C332.259,52.218 341.644,67.433 341.644,84.804C341.644,104.132 330.024,120.796 313.397,128.174ZM318.602,38.69C316.859,37.763 315.06,36.934 313.213,36.21C312.028,35.743 310.825,35.326 309.598,34.946C309.199,34.823 308.793,34.7 308.388,34.59C303.883,33.313 299.126,32.632 294.216,32.632C289.306,32.632 284.548,33.313 280.043,34.59C279.638,34.7 279.233,34.823 278.834,34.946C277.606,35.326 276.403,35.743 275.219,36.21C273.372,36.934 271.573,37.763 269.83,38.69C253.313,47.454 242.043,64.837 242.043,84.804C242.043,106.919 255.872,125.867 275.342,133.447C277.177,134.159 279.055,134.772 280.982,135.276C282.21,135.601 283.456,135.877 284.72,136.111C285.138,136.19 285.549,136.258 285.966,136.326C288.655,136.755 291.411,136.976 294.216,136.976C297.021,136.976 299.777,136.755 302.465,136.326C302.883,136.258 303.294,136.19 303.711,136.111C304.976,135.877 306.222,135.601 307.449,135.276C309.376,134.772 311.255,134.159 313.09,133.447C332.56,125.867 346.388,106.919 346.388,84.804C346.388,64.837 335.119,47.454 318.602,38.69ZM294.216,32.632C289.306,32.632 284.548,33.313 280.043,34.59L280.326,39.457C284.72,38.1 289.385,37.376 294.216,37.376C299.046,37.376 303.711,38.1 308.106,39.457L308.388,34.59C303.883,33.313 299.126,32.632 294.216,32.632Z" style="fill:white;fill-rule:nonzero;"/>
        </g>
        <g transform="matrix(4.16667,0,0,4.16667,-885.929,22.6121)">
            <path d="M307.449,135.276L306.369,153.819L298.924,153.819L298.249,158.563L297.469,163.983L290.963,163.983L297.898,158.563L304.037,153.819L282.063,153.819L280.982,135.276L280.694,130.261C278.754,129.69 276.864,128.991 275.035,128.174L275.342,133.447L276.852,159.343L284.714,159.343L286.169,169.507L302.263,169.507L303.717,159.343L311.58,159.343L313.09,133.447L313.397,128.174C311.568,128.991 309.677,129.69 307.738,130.261L307.449,135.276ZM267.583,0.1L269.83,38.69L270.137,43.962C271.861,42.937 273.66,42.023 275.514,41.224L275.219,36.21L273.439,5.624L314.993,5.624L313.213,36.21L312.918,41.224C314.772,42.023 316.57,42.937 318.295,43.962L318.602,38.69L320.848,0.1L267.583,0.1Z" style="fill:white;fill-rule:nonzero;"/>
        </g>
        <g transform="matrix(4.16667,0,0,4.16667,-885.929,22.6121)">
            <path d="M332.302,105.341C330.879,107.973 329.195,110.439 327.274,112.716C326.978,113.06 326.681,113.404 326.373,113.747C324.82,115.467 323.148,117.056 321.346,118.502C321.049,118.74 320.752,118.976 320.444,119.214C318.855,120.435 317.172,121.538 315.417,122.522C315.121,122.7 314.824,122.866 314.516,123.02C312.903,123.886 311.219,124.644 309.488,125.297C309.192,125.415 308.896,125.522 308.587,125.629C306.951,126.209 305.279,126.684 303.56,127.063C303.263,127.135 302.955,127.194 302.658,127.253C301.01,127.585 299.338,127.81 297.631,127.941C297.334,127.976 297.038,127.988 296.729,128C295.899,128.059 295.058,128.083 294.216,128.083C293.374,128.083 292.532,128.059 291.702,128C291.394,127.988 291.097,127.976 290.801,127.941C289.093,127.81 287.421,127.585 285.773,127.253C285.477,127.194 285.168,127.135 284.872,127.063C283.153,126.684 281.481,126.209 279.845,125.629C279.536,125.522 279.24,125.415 278.943,125.297C277.212,124.644 275.528,123.886 273.916,123.02C273.608,122.866 273.311,122.7 273.015,122.522C271.26,121.538 269.576,120.435 267.987,119.214C267.679,118.976 267.382,118.74 267.086,118.502C265.284,117.056 263.612,115.467 262.058,113.747C261.75,113.404 261.454,113.06 261.157,112.716C259.236,110.439 257.553,107.973 256.13,105.341C255.81,104.771 255.513,104.19 255.229,103.598C252.478,97.907 250.937,91.527 250.937,84.804C250.937,78.081 252.478,71.701 255.229,66.01C255.513,65.417 255.81,64.836 256.13,64.267C257.553,61.635 259.236,59.168 261.157,56.892C261.454,56.548 261.75,56.204 262.058,55.86C263.612,54.141 265.284,52.552 267.086,51.105C267.382,50.868 267.679,50.631 267.987,50.394C269.576,49.173 271.26,48.07 273.015,47.086C273.311,46.907 273.608,46.741 273.916,46.588C275.528,45.722 277.212,44.963 278.943,44.311C279.24,44.193 279.536,44.086 279.845,43.979C281.481,43.398 283.153,42.924 284.872,42.544C285.168,42.473 285.477,42.414 285.773,42.355C287.421,42.023 289.093,41.797 290.801,41.667C291.097,41.631 291.394,41.619 291.702,41.608C292.532,41.548 293.374,41.525 294.216,41.525C295.058,41.525 295.899,41.548 296.729,41.608C297.038,41.619 297.334,41.631 297.631,41.667C299.338,41.797 301.01,42.023 302.658,42.355C302.955,42.414 303.263,42.473 303.56,42.544C305.279,42.924 306.951,43.398 308.587,43.979C308.896,44.086 309.192,44.193 309.488,44.311C311.219,44.963 312.903,45.722 314.516,46.588C314.824,46.741 315.121,46.907 315.417,47.086C317.172,48.07 318.855,49.173 320.444,50.394C320.752,50.631 321.049,50.868 321.346,51.105C323.148,52.552 324.82,54.141 326.373,55.86C326.681,56.204 326.978,56.548 327.274,56.892C329.195,59.168 330.879,61.635 332.302,64.267C332.622,64.836 332.918,65.417 333.203,66.01C335.954,71.701 337.495,78.081 337.495,84.804C337.495,91.527 335.954,97.907 333.203,103.598C332.918,104.19 332.622,104.771 332.302,105.341ZM333.203,63.437C332.918,62.903 332.622,62.393 332.302,61.884C330.843,59.465 329.16,57.2 327.274,55.113C326.99,54.781 326.681,54.461 326.373,54.129C324.82,52.492 323.136,50.975 321.346,49.599C321.049,49.362 320.752,49.137 320.444,48.924C318.844,47.75 317.172,46.682 315.417,45.722C315.121,45.556 314.824,45.402 314.516,45.248C312.891,44.406 311.219,43.671 309.488,43.042C309.192,42.924 308.883,42.817 308.587,42.722C306.951,42.165 305.279,41.691 303.56,41.323C303.263,41.263 302.967,41.204 302.658,41.145C301.01,40.825 299.338,40.599 297.631,40.469C297.334,40.446 297.026,40.422 296.729,40.41C295.899,40.363 295.058,40.339 294.216,40.339C293.374,40.339 292.532,40.363 291.702,40.41C291.406,40.422 291.097,40.446 290.801,40.469C289.093,40.599 287.421,40.825 285.773,41.145C285.465,41.204 285.168,41.263 284.872,41.323C283.153,41.691 281.481,42.165 279.845,42.722C279.548,42.817 279.24,42.924 278.943,43.042C277.212,43.671 275.541,44.406 273.916,45.248C273.608,45.402 273.311,45.556 273.015,45.722C271.26,46.682 269.588,47.75 267.987,48.924C267.679,49.137 267.382,49.362 267.086,49.599C265.295,50.975 263.612,52.492 262.058,54.129C261.75,54.461 261.441,54.781 261.157,55.113C259.272,57.2 257.588,59.465 256.13,61.884C255.81,62.393 255.513,62.903 255.229,63.437C251.731,69.781 249.75,77.061 249.75,84.804C249.75,92.547 251.731,99.827 255.229,106.171C255.513,106.704 255.81,107.214 256.13,107.724C257.588,110.143 259.272,112.408 261.157,114.495C261.441,114.827 261.75,115.147 262.058,115.479C263.612,117.115 265.295,118.633 267.086,120.008C267.382,120.246 267.679,120.471 267.987,120.684C269.588,121.858 271.26,122.925 273.015,123.886C273.311,124.052 273.608,124.205 273.916,124.36C275.541,125.202 277.212,125.937 278.943,126.565C279.24,126.684 279.548,126.79 279.845,126.886C281.481,127.443 283.153,127.917 284.872,128.285C285.168,128.344 285.465,128.403 285.773,128.462C287.421,128.783 289.093,129.008 290.801,129.139C291.097,129.162 291.406,129.186 291.702,129.198C292.532,129.245 293.374,129.269 294.216,129.269C295.058,129.269 295.899,129.245 296.729,129.198C297.026,129.186 297.334,129.162 297.631,129.139C299.338,129.008 301.01,128.783 302.658,128.462C302.967,128.403 303.263,128.344 303.56,128.285C305.279,127.917 306.951,127.443 308.587,126.886C308.883,126.79 309.192,126.684 309.488,126.565C311.219,125.937 312.891,125.202 314.516,124.36C314.824,124.205 315.121,124.052 315.417,123.886C317.172,122.925 318.844,121.858 320.444,120.684C320.752,120.471 321.049,120.246 321.346,120.008C323.136,118.633 324.82,117.115 326.373,115.479C326.681,115.147 326.99,114.827 327.274,114.495C329.16,112.408 330.843,110.143 332.302,107.724C332.622,107.214 332.918,106.704 333.203,106.171C336.701,99.827 338.681,92.547 338.681,84.804C338.681,77.061 336.701,69.781 333.203,63.437Z" style="fill:white;fill-rule:nonzero;"/>
        </g>
        <g transform="matrix(4.16667,0,0,4.16667,-885.929,22.6121)">
            <rect x="254.145" y="87.873" width="3.068" height="9.821" style="fill:white;fill-rule:nonzero;"/>
        </g>
        <g transform="matrix(4.16667,0,0,4.16667,-885.929,22.6121)">
            <rect x="260.074" y="76.824" width="3.069" height="27.007" style="fill:white;fill-rule:nonzero;"/>
        </g>
        <g transform="matrix(4.16667,0,0,4.16667,-885.929,22.6121)">
            <rect x="325.289" y="64.549" width="3.069" height="16.572" style="fill:white;fill-rule:nonzero;"/>
        </g>
        <g transform="matrix(4.16667,0,0,4.16667,-885.929,22.6121)">
            <rect x="331.218" y="79.28" width="3.069" height="16.572" style="fill:white;fill-rule:nonzero;"/>
        </g>
        <g transform="matrix(4.16667,0,0,4.16667,-885.929,22.6121)">
            <rect x="319.36" y="78.052" width="3.069" height="27.007" style="fill:white;fill-rule:nonzero;"/>
        </g>
        <g transform="matrix(4.16667,0,0,4.16667,-885.929,22.6121)">
            <rect x="266.002" y="62.094" width="3.069" height="37.441" style="fill:white;fill-rule:nonzero;"/>
        </g>
        <g transform="matrix(4.16667,0,0,4.16667,-885.929,22.6121)">
            <rect x="271.931" y="53.5" width="3.069" height="30.69" style="fill:white;fill-rule:nonzero;"/>
        </g>
        <g transform="matrix(4.16667,0,0,4.16667,-885.929,22.6121)">
            <rect x="295.646" y="58.411" width="3.069" height="39.896" style="fill:white;fill-rule:nonzero;"/>
        </g>
        <g transform="matrix(4.16667,0,0,4.16667,-885.929,22.6121)">
            <rect x="313.432" y="68.845" width="3.069" height="25.78" style="fill:white;fill-rule:nonzero;"/>
        </g>
        <g transform="matrix(4.16667,0,0,4.16667,-885.929,22.6121)">
            <rect x="301.574" y="48.59" width="3.07" height="39.283" style="fill:white;fill-rule:nonzero;"/>
        </g>
        <g transform="matrix(4.16667,0,0,4.16667,-885.929,22.6121)">
            <rect x="277.859" y="74.983" width="3.07" height="12.89" style="fill:white;fill-rule:nonzero;"/>
        </g>
        <g transform="matrix(4.16667,0,0,4.16667,-885.929,22.6121)">
            <rect x="307.503" y="61.48" width="3.069" height="12.889" style="fill:white;fill-rule:nonzero;"/>
        </g>
        <g transform="matrix(4.16667,0,0,4.16667,-885.929,22.6121)">
            <rect x="283.788" y="78.052" width="3.069" height="24.551" style="fill:white;fill-rule:nonzero;"/>
        </g>
        <g transform="matrix(4.16667,0,0,4.16667,-885.929,22.6121)">
            <rect x="289.717" y="89.1" width="3.069" height="27.621" style="fill:white;fill-rule:nonzero;"/>
        </g>
    </g>
    <g id="KegWatch" transform="matrix(1,0,0,1,-66.8973,-7.3763)">
        <g transform="matrix(4.16667,0,0,4.16667,-885.929,22.6121)">
            <path d="M416.218,112.403L395.343,88.27L395.343,112.403L386.497,112.403L386.497,58.47L395.343,58.47L395.343,83.07L416.296,58.47L427.393,58.47L403.957,85.476L427.781,112.403L416.218,112.403Z" style="fill:white;fill-rule:nonzero;"/>
        </g>
        <g transform="matrix(4.16667,0,0,4.16667,-885.929,22.6121)">
            <path d="M465.572,87.183C465.521,83.924 464.356,81.312 462.08,79.345C459.803,77.38 456.984,76.397 453.622,76.397C450.568,76.397 447.957,77.366 445.784,79.306C443.611,81.247 442.317,83.873 441.904,87.183L465.572,87.183ZM474.496,94.323L441.826,94.323C442.084,97.737 443.352,100.479 445.628,102.548C447.904,104.618 450.698,105.652 454.009,105.652C458.769,105.652 462.131,103.661 464.098,99.677L473.643,99.677C472.349,103.609 470.008,106.83 466.62,109.338C463.23,111.848 459.027,113.101 454.009,113.101C449.922,113.101 446.261,112.184 443.029,110.347C439.795,108.511 437.26,105.924 435.424,102.587C433.587,99.25 432.669,95.384 432.669,90.986C432.669,86.589 433.562,82.721 435.346,79.384C437.131,76.047 439.64,73.474 442.874,71.663C446.106,69.853 449.819,68.947 454.009,68.947C458.045,68.947 461.64,69.827 464.796,71.585C467.951,73.345 470.409,75.815 472.168,78.996C473.927,82.178 474.807,85.839 474.807,89.977C474.807,91.581 474.702,93.03 474.496,94.323Z" style="fill:white;fill-rule:nonzero;"/>
        </g>
        <g transform="matrix(4.16667,0,0,4.16667,-885.929,22.6121)">
            <path d="M513.723,83.303C512.507,81.13 510.916,79.475 508.95,78.337C506.983,77.199 504.862,76.629 502.587,76.629C500.31,76.629 498.188,77.186 496.224,78.298C494.257,79.411 492.666,81.04 491.451,83.187C490.234,85.334 489.627,87.882 489.627,90.83C489.627,93.779 490.234,96.367 491.451,98.591C492.666,100.815 494.271,102.509 496.263,103.673C498.253,104.837 500.361,105.419 502.587,105.419C504.862,105.419 506.983,104.851 508.95,103.712C510.916,102.575 512.507,100.906 513.723,98.707C514.938,96.509 515.546,93.934 515.546,90.986C515.546,88.037 514.938,85.476 513.723,83.303ZM509.532,70.926C512.093,72.245 514.098,73.888 515.546,75.853L515.546,69.645L524.471,69.645L524.471,113.101C524.471,117.033 523.643,120.538 521.987,123.617C520.331,126.694 517.938,129.113 514.809,130.872C511.679,132.63 507.941,133.511 503.596,133.511C497.801,133.511 492.989,132.153 489.162,129.437C485.333,126.721 483.16,123.035 482.644,118.378L491.412,118.378C492.084,120.602 493.52,122.4 495.719,123.772C497.917,125.142 500.542,125.828 503.596,125.828C507.165,125.828 510.049,124.742 512.248,122.569C514.445,120.396 515.546,117.24 515.546,113.101L515.546,105.962C514.044,107.98 512.016,109.675 509.454,111.045C506.894,112.415 503.983,113.101 500.725,113.101C496.999,113.101 493.597,112.158 490.52,110.269C487.441,108.381 485.01,105.743 483.226,102.354C481.44,98.967 480.548,95.125 480.548,90.83C480.548,86.537 481.44,82.735 483.226,79.423C485.01,76.113 487.441,73.539 490.52,71.702C493.597,69.866 496.999,68.947 500.725,68.947C504.034,68.947 506.972,69.607 509.532,70.926Z" style="fill:white;fill-rule:nonzero;"/>
        </g>
        <g transform="matrix(4.16667,0,0,4.16667,-885.929,22.6121)">
            <path d="M606.339,58.47L590.354,112.403L580.343,112.403L569.013,71.585L556.985,112.403L547.052,112.481L531.765,58.47L541.154,58.47L552.329,102.392L564.435,58.47L574.367,58.47L585.62,102.16L596.872,58.47L606.339,58.47Z" style="fill:white;fill-rule:nonzero;"/>
        </g>
        <g transform="matrix(4.16667,0,0,4.16667,-885.929,22.6121)">
            <path d="M643.859,83.303C642.644,81.13 641.053,79.475 639.087,78.337C637.12,77.199 634.999,76.629 632.724,76.629C630.446,76.629 628.325,77.186 626.36,78.298C624.394,79.411 622.803,81.04 621.588,83.187C620.371,85.334 619.764,87.882 619.764,90.83C619.764,93.779 620.371,96.367 621.588,98.591C622.803,100.815 624.407,102.509 626.399,103.673C628.39,104.837 630.498,105.419 632.724,105.419C634.999,105.419 637.12,104.851 639.087,103.712C641.053,102.575 642.644,100.906 643.859,98.707C645.074,96.509 645.683,93.934 645.683,90.986C645.683,88.037 645.074,85.476 643.859,83.303ZM613.362,79.423C615.146,76.113 617.578,73.539 620.656,71.702C623.733,69.866 627.136,68.947 630.861,68.947C634.224,68.947 637.159,69.607 639.669,70.926C642.178,72.245 644.182,73.888 645.683,75.853L645.683,69.645L654.607,69.645L654.607,112.403L645.683,112.403L645.683,106.04C644.182,108.058 642.139,109.739 639.553,111.084C636.965,112.429 634.016,113.101 630.706,113.101C627.032,113.101 623.67,112.158 620.618,110.269C617.564,108.381 615.146,105.743 613.362,102.354C611.577,98.967 610.685,95.125 610.685,90.83C610.685,86.537 611.577,82.735 613.362,79.423Z" style="fill:white;fill-rule:nonzero;"/>
        </g>
        <g transform="matrix(4.16667,0,0,4.16667,-885.929,22.6121)">
            <path d="M676.567,76.862L676.567,100.53C676.567,102.134 676.942,103.285 677.693,103.983C678.442,104.682 679.723,105.031 681.534,105.031L686.967,105.031L686.967,112.403L679.982,112.403C675.998,112.403 672.946,111.472 670.825,109.61C668.703,107.747 667.644,104.721 667.644,100.53L667.644,76.862L662.6,76.862L662.6,69.645L667.644,69.645L667.644,59.014L676.567,59.014L676.567,69.645L686.967,69.645L686.967,76.862L676.567,76.862Z" style="fill:white;fill-rule:nonzero;"/>
        </g>
        <g transform="matrix(4.16667,0,0,4.16667,-885.929,22.6121)">
            <path d="M694.843,79.384C696.627,76.047 699.098,73.474 702.253,71.663C705.408,69.853 709.03,68.947 713.117,68.947C718.29,68.947 722.571,70.177 725.961,72.633C729.349,75.091 731.638,78.596 732.828,83.148L723.283,83.148C722.507,81.027 721.266,79.372 719.559,78.181C717.852,76.992 715.704,76.397 713.117,76.397C709.496,76.397 706.611,77.677 704.465,80.238C702.317,82.799 701.244,86.382 701.244,90.986C701.244,95.591 702.317,99.186 704.465,101.772C706.611,104.359 709.496,105.652 713.117,105.652C718.239,105.652 721.627,103.401 723.283,98.901L732.828,98.901C731.587,103.246 729.259,106.7 725.844,109.26C722.43,111.821 718.188,113.101 713.117,113.101C709.03,113.101 705.408,112.184 702.253,110.347C699.098,108.511 696.627,105.924 694.843,102.587C693.058,99.25 692.165,95.384 692.165,90.986C692.165,86.589 693.058,82.721 694.843,79.384Z" style="fill:white;fill-rule:nonzero;"/>
        </g>
        <g transform="matrix(4.16667,0,0,4.16667,-885.929,22.6121)">
            <path d="M772.521,71.042C775.081,72.439 777.099,74.509 778.573,77.25C780.048,79.993 780.784,83.303 780.784,87.183L780.784,112.403L772.016,112.403L772.016,88.502C772.016,84.675 771.058,81.739 769.145,79.695C767.229,77.652 764.617,76.629 761.307,76.629C757.995,76.629 755.37,77.652 753.431,79.695C751.49,81.739 750.521,84.675 750.521,88.502L750.521,112.403L741.674,112.403L741.674,54.979L750.521,54.979L750.521,74.612C752.021,72.802 753.921,71.405 756.224,70.421C758.525,69.439 761.047,68.947 763.79,68.947C767.049,68.947 769.959,69.645 772.521,71.042Z" style="fill:white;fill-rule:nonzero;"/>
        </g>
    </g>
</svg>
