<?xml version="1.0" encoding="UTF-8" standalone="no"?>
<!DOCTYPE svg PUBLIC "-//W3C//DTD SVG 1.1//EN" "http://www.w3.org/Graphics/SVG/1.1/DTD/svg11.dtd">
<svg width="100%" height="100%" viewBox="0 0 2400 750" version="1.1" xmlns="http://www.w3.org/2000/svg" xmlns:xlink="http://www.w3.org/1999/xlink" xml:space="preserve" xmlns:serif="http://www.serif.com/" style="fill-rule:evenodd;clip-rule:evenodd;stroke-linejoin:round;stroke-miterlimit:2;">
    <g id="KegWatch" transform="matrix(1,0,0,1,-66.8973,-7.3763)">
        <g transform="matrix(4.16667,0,0,4.16667,-885.929,22.6121)">
            <path d="M416.218,112.403L395.343,88.27L395.343,112.403L386.497,112.403L386.497,58.47L395.343,58.47L395.343,83.07L416.296,58.47L427.393,58.47L403.957,85.476L427.781,112.403L416.218,112.403Z" style="fill:white;fill-rule:nonzero;"/>
        </g>
        <g transform="matrix(4.16667,0,0,4.16667,-885.929,22.6121)">
            <path d="M465.572,87.183C465.521,83.924 464.356,81.312 462.08,79.345C459.803,77.38 456.984,76.397 453.622,76.397C450.568,76.397 447.957,77.366 445.784,79.306C443.611,81.247 442.317,83.873 441.904,87.183L465.572,87.183ZM474.496,94.323L441.826,94.323C442.084,97.737 443.352,100.479 445.628,102.548C447.904,104.618 450.698,105.652 454.009,105.652C458.769,105.652 462.131,103.661 464.098,99.677L473.643,99.677C472.349,103.609 470.008,106.83 466.62,109.338C463.23,111.848 459.027,113.101 454.009,113.101C449.922,113.101 446.261,112.184 443.029,110.347C439.795,108.511 437.26,105.924 435.424,102.587C433.587,99.25 432.669,95.384 432.669,90.986C432.669,86.589 433.562,82.721 435.346,79.384C437.131,76.047 439.64,73.474 442.874,71.663C446.106,69.853 449.819,68.947 454.009,68.947C458.045,68.947 461.64,69.827 464.796,71.585C467.951,73.345 470.409,75.815 472.168,78.996C473.927,82.178 474.807,85.839 474.807,89.977C474.807,91.581 474.702,93.03 474.496,94.323Z" style="fill:white;fill-rule:nonzero;"/>
        </g>
        <g transform="matrix(4.16667,0,0,4.16667,-885.929,22.6121)">
            <path d="M513.723,83.303C512.507,81.13 510.916,79.475 508.95,78.337C506.983,77.199 504.862,76.629 502.587,76.629C500.31,76.629 498.188,77.186 496.224,78.298C494.257,79.411 492.666,81.04 491.451,83.187C490.234,85.334 489.627,87.882 489.627,90.83C489.627,93.779 490.234,96.367 491.451,98.591C492.666,100.815 494.271,102.509 496.263,103.673C498.253,104.837 500.361,105.419 502.587,105.419C504.862,105.419 506.983,104.851 508.95,103.712C510.916,102.575 512.507,100.906 513.723,98.707C514.938,96.509 515.546,93.934 515.546,90.986C515.546,88.037 514.938,85.476 513.723,83.303ZM509.532,70.926C512.093,72.245 514.098,73.888 515.546,75.853L515.546,69.645L524.471,69.645L524.471,113.101C524.471,117.033 523.643,120.538 521.987,123.617C520.331,126.694 517.938,129.113 514.809,130.872C511.679,132.63 507.941,133.511 503.596,133.511C497.801,133.511 492.989,132.153 489.162,129.437C485.333,126.721 483.16,123.035 482.644,118.378L491.412,118.378C492.084,120.602 493.52,122.4 495.719,123.772C497.917,125.142 500.542,125.828 503.596,125.828C507.165,125.828 510.049,124.742 512.248,122.569C514.445,120.396 515.546,117.24 515.546,113.101L515.546,105.962C514.044,107.98 512.016,109.675 509.454,111.045C506.894,112.415 503.983,113.101 500.725,113.101C496.999,113.101 493.597,112.158 490.52,110.269C487.441,108.381 485.01,105.743 483.226,102.354C481.44,98.967 480.548,95.125 480.548,90.83C480.548,86.537 481.44,82.735 483.226,79.423C485.01,76.113 487.441,73.539 490.52,71.702C493.597,69.866 496.999,68.947 500.725,68.947C504.034,68.947 506.972,69.607 509.532,70.926Z" style="fill:white;fill-rule:nonzero;"/>
        </g>
        <g transform="matrix(4.16667,0,0,4.16667,-885.929,22.6121)">
            <path d="M606.339,58.47L590.354,112.403L580.343,112.403L569.013,71.585L556.985,112.403L547.052,112.481L531.765,58.47L541.154,58.47L552.329,102.392L564.435,58.47L574.367,58.47L585.62,102.16L596.872,58.47L606.339,58.47Z" style="fill:white;fill-rule:nonzero;"/>
        </g>
        <g transform="matrix(4.16667,0,0,4.16667,-885.929,22.6121)">
            <path d="M643.859,83.303C642.644,81.13 641.053,79.475 639.087,78.337C637.12,77.199 634.999,76.629 632.724,76.629C630.446,76.629 628.325,77.186 626.36,78.298C624.394,79.411 622.803,81.04 621.588,83.187C620.371,85.334 619.764,87.882 619.764,90.83C619.764,93.779 620.371,96.367 621.588,98.591C622.803,100.815 624.407,102.509 626.399,103.673C628.39,104.837 630.498,105.419 632.724,105.419C634.999,105.419 637.12,104.851 639.087,103.712C641.053,102.575 642.644,100.906 643.859,98.707C645.074,96.509 645.683,93.934 645.683,90.986C645.683,88.037 645.074,85.476 643.859,83.303ZM613.362,79.423C615.146,76.113 617.578,73.539 620.656,71.702C623.733,69.866 627.136,68.947 630.861,68.947C634.224,68.947 637.159,69.607 639.669,70.926C642.178,72.245 644.182,73.888 645.683,75.853L645.683,69.645L654.607,69.645L654.607,112.403L645.683,112.403L645.683,106.04C644.182,108.058 642.139,109.739 639.553,111.084C636.965,112.429 634.016,113.101 630.706,113.101C627.032,113.101 623.67,112.158 620.618,110.269C617.564,108.381 615.146,105.743 613.362,102.354C611.577,98.967 610.685,95.125 610.685,90.83C610.685,86.537 611.577,82.735 613.362,79.423Z" style="fill:white;fill-rule:nonzero;"/>
        </g>
        <g transform="matrix(4.16667,0,0,4.16667,-885.929,22.6121)">
            <path d="M676.567,76.862L676.567,100.53C676.567,102.134 676.942,103.285 677.693,103.983C678.442,104.682 679.723,105.031 681.534,105.031L686.967,105.031L686.967,112.403L679.982,112.403C675.998,112.403 672.946,111.472 670.825,109.61C668.703,107.747 667.644,104.721 667.644,100.53L667.644,76.862L662.6,76.862L662.6,69.645L667.644,69.645L667.644,59.014L676.567,59.014L676.567,69.645L686.967,69.645L686.967,76.862L676.567,76.862Z" style="fill:white;fill-rule:nonzero;"/>
        </g>
        <g transform="matrix(4.16667,0,0,4.16667,-885.929,22.6121)">
            <path d="M694.843,79.384C696.627,76.047 699.098,73.474 702.253,71.663C705.408,69.853 709.03,68.947 713.117,68.947C718.29,68.947 722.571,70.177 725.961,72.633C729.349,75.091 731.638,78.596 732.828,83.148L723.283,83.148C722.507,81.027 721.266,79.372 719.559,78.181C717.852,76.992 715.704,76.397 713.117,76.397C709.496,76.397 706.611,77.677 704.465,80.238C702.317,82.799 701.244,86.382 701.244,90.986C701.244,95.591 702.317,99.186 704.465,101.772C706.611,104.359 709.496,105.652 713.117,105.652C718.239,105.652 721.627,103.401 723.283,98.901L732.828,98.901C731.587,103.246 729.259,106.7 725.844,109.26C722.43,111.821 718.188,113.101 713.117,113.101C709.03,113.101 705.408,112.184 702.253,110.347C699.098,108.511 696.627,105.924 694.843,102.587C693.058,99.25 692.165,95.384 692.165,90.986C692.165,86.589 693.058,82.721 694.843,79.384Z" style="fill:white;fill-rule:nonzero;"/>
        </g>
        <g transform="matrix(4.16667,0,0,4.16667,-885.929,22.6121)">
            <path d="M772.521,71.042C775.081,72.439 777.099,74.509 778.573,77.25C780.048,79.993 780.784,83.303 780.784,87.183L780.784,112.403L772.016,112.403L772.016,88.502C772.016,84.675 771.058,81.739 769.145,79.695C767.229,77.652 764.617,76.629 761.307,76.629C757.995,76.629 755.37,77.652 753.431,79.695C751.49,81.739 750.521,84.675 750.521,88.502L750.521,112.403L741.674,112.403L741.674,54.979L750.521,54.979L750.521,74.612C752.021,72.802 753.921,71.405 756.224,70.421C758.525,69.439 761.047,68.947 763.79,68.947C767.049,68.947 769.959,69.645 772.521,71.042Z" style="fill:white;fill-rule:nonzero;"/>
        </g>
    </g>
    <g id="Beer-Mug" serif:id="Beer Mug" transform="matrix(0.882205,0,0,0.882205,-722.897,18.9804)">
        <g transform="matrix(4.16667,0,0,4.16667,-1333.33,-4215.85)">
            <path d="M566.581,1066.62L566.581,1091.76C566.581,1094.48 564.361,1096.7 561.634,1096.7C558.906,1096.7 556.687,1094.48 556.687,1091.76L556.687,1066.62L552.333,1066.62L552.333,1072.3L552.224,1072.36C551.143,1072.89 550.038,1073.17 548.937,1073.17C547.801,1073.17 546.702,1072.89 545.603,1072.33C544.103,1071.27 542.785,1069.96 541.686,1068.45C539.589,1065.56 538.481,1062.12 538.481,1058.52C538.481,1050.72 543.929,1043.81 551.435,1042.11L552.639,1041.83L553.016,1040.66C556.004,1031.52 564.382,1025.39 573.863,1025.39C577.953,1025.39 581.967,1026.56 585.471,1028.77L587.043,1029.77L588.271,1028.37C591.434,1024.75 595.963,1022.67 600.696,1022.67C607.104,1022.67 612.826,1026.32 615.629,1032.19L616.544,1034.1L618.475,1033.24C620.084,1032.53 621.774,1032.18 623.5,1032.18C627.174,1032.18 630.663,1033.81 633.071,1036.66L634.239,1038.06L635.813,1037.16C638.402,1035.68 641.334,1034.89 644.294,1034.89C653.817,1034.89 661.565,1042.75 661.565,1052.41C661.565,1057.99 658.896,1063.29 654.424,1066.58L654.372,1066.62L566.581,1066.62ZM572.014,1186.93C557.846,1186.67 546.396,1175.08 546.396,1160.85L546.396,1077.21L546.638,1077.27C548.452,1077.67 550.33,1077.6 552.08,1077.08L552.333,1077.01L552.333,1091.76C552.333,1096.88 556.506,1101.06 561.634,1101.06C566.762,1101.06 570.935,1096.88 570.935,1091.76L570.935,1070.98L652.858,1070.98L652.858,1160.85C652.858,1175.08 641.409,1186.67 627.241,1186.93L572.014,1186.93ZM661.32,1135.49L657.212,1135.49L657.212,1082.85L661.32,1082.85C667.565,1082.85 672.646,1087.93 672.646,1094.18L672.646,1124.16C672.646,1130.41 667.565,1135.49 661.32,1135.49ZM661.32,1078.5L657.212,1078.5L657.212,1069.94L657.289,1069.88C662.773,1065.69 665.919,1059.33 665.919,1052.41C665.919,1040.35 656.218,1030.54 644.294,1030.54C641.229,1030.54 638.127,1031.22 635.321,1032.51L635.199,1032.57L635.103,1032.48C631.951,1029.48 627.831,1027.82 623.5,1027.82C621.88,1027.82 620.285,1028.05 618.76,1028.5L618.613,1028.55L618.534,1028.42C614.714,1022.09 608.045,1018.32 600.696,1018.32C595.347,1018.32 590.251,1020.37 586.347,1024.09L586.243,1024.19L586.117,1024.12C582.353,1022.1 578.114,1021.03 573.863,1021.03C562.893,1021.03 553.259,1027.72 549.321,1038.07L549.285,1038.16L549.192,1038.19C540.183,1040.84 534.128,1049.01 534.128,1058.52C534.128,1064.18 536.312,1069.49 540.276,1073.49C540.831,1074.05 541.4,1074.57 541.97,1075.03L542.044,1075.09L542.044,1160.85C542.044,1171.9 547.963,1181.59 556.796,1186.93L541.647,1186.93L541.647,1191.29L656.815,1191.29L656.815,1186.93L642.459,1186.93C651.293,1181.59 657.212,1171.9 657.212,1160.85L657.212,1139.84L661.32,1139.84C669.966,1139.84 677,1132.81 677,1124.16L677,1094.18C677,1085.53 669.966,1078.5 661.32,1078.5Z" style="fill:white;fill-rule:nonzero;"/>
        </g>
        <g transform="matrix(4.16667,0,0,4.16667,-1333.33,-4215.85)">
            <path d="M556.786,1120.19L557.529,1120.19L557.529,1127.23L558.592,1127.23L558.592,1120.19L559.336,1120.19L559.336,1114.29L556.786,1114.29L556.786,1120.19Z" style="fill:white;fill-rule:nonzero;"/>
        </g>
        <g transform="matrix(4.16667,0,0,4.16667,-1333.33,-4215.85)">
            <path d="M578.024,1144.29L578.88,1144.29L578.88,1152.47L579.72,1152.47L579.72,1144.29L580.574,1144.29L580.574,1128.61L578.024,1128.61L578.024,1144.29Z" style="fill:white;fill-rule:nonzero;"/>
        </g>
        <g transform="matrix(4.16667,0,0,4.16667,-1333.33,-4215.85)">
            <path d="M553.633,1105L552.793,1105L552.793,1106.71L551.938,1106.71L551.938,1115.37L552.793,1115.37L552.793,1121.89L553.633,1121.89L553.633,1115.37L554.487,1115.37L554.487,1106.71L553.633,1106.71L553.633,1105Z" style="fill:white;fill-rule:nonzero;"/>
        </g>
        <g transform="matrix(4.16667,0,0,4.16667,-1333.33,-4215.85)">
            <path d="M563.344,1112.42L563.344,1127.57L562.471,1127.57L562.471,1112.42L563.344,1112.42ZM563.328,1107.42L562.486,1107.42L562.486,1111.05L561.192,1111.05L561.192,1128.94L562.486,1128.94L562.486,1135.97L563.328,1135.97L563.328,1128.94L564.631,1128.94L564.631,1111.05L563.328,1111.05L563.328,1107.42Z" style="fill:white;fill-rule:nonzero;"/>
        </g>
        <g transform="matrix(4.16667,0,0,4.16667,-1333.33,-4215.85)">
            <path d="M571.635,1116.16L570.795,1116.16L570.795,1123.66L569.939,1123.66L569.939,1148.06L572.489,1148.06L572.489,1123.66L571.635,1123.66L571.635,1116.16Z" style="fill:white;fill-rule:nonzero;"/>
        </g>
        <g transform="matrix(4.16667,0,0,4.16667,-1333.33,-4215.85)">
            <path d="M586.124,1129.49L586.124,1132.25L585.251,1132.25L585.251,1129.49L586.124,1129.49ZM586.107,1125.23L585.267,1125.23L585.267,1128.12L583.964,1128.12L583.964,1133.62L585.267,1133.62L585.267,1139.21L586.107,1139.21L586.107,1133.62L587.402,1133.62L587.402,1128.12L586.107,1128.12L586.107,1125.23Z" style="fill:white;fill-rule:nonzero;"/>
        </g>
        <g transform="matrix(4.16667,0,0,4.16667,-1333.33,-4215.85)">
            <path d="M592.954,1131.05L592.113,1131.05L592.113,1133.43L591.259,1133.43L591.259,1162.89L592.113,1162.89L592.113,1174.79L592.954,1174.79L592.954,1162.89L593.809,1162.89L593.809,1133.43L592.954,1133.43L592.954,1131.05Z" style="fill:white;fill-rule:nonzero;"/>
        </g>
        <g transform="matrix(4.16667,0,0,4.16667,-1333.33,-4215.85)">
            <path d="M607.188,1144.31L606.348,1144.31L606.348,1154.23L605.493,1154.23L605.493,1175.28L606.348,1175.28L606.348,1177.71L607.188,1177.71L607.188,1175.28L608.043,1175.28L608.043,1154.23L607.188,1154.23L607.188,1144.31Z" style="fill:white;fill-rule:nonzero;"/>
        </g>
        <g transform="matrix(4.16667,0,0,4.16667,-1333.33,-4215.85)">
            <path d="M598.942,1163.38L598.942,1160.61L599.815,1160.61L599.815,1163.38L598.942,1163.38ZM599.8,1154.98L598.958,1154.98L598.958,1159.25L597.664,1159.25L597.664,1164.75L601.103,1164.75L601.103,1159.25L599.8,1159.25L599.8,1154.98Z" style="fill:white;fill-rule:nonzero;"/>
        </g>
        <g transform="matrix(4.16667,0,0,4.16667,-1333.33,-4215.85)">
            <path d="M614.545,1113.91L613.705,1113.91L613.705,1116.76L612.851,1116.76L612.851,1154.62L613.705,1154.62L613.705,1161.2L614.545,1161.2L614.545,1154.62L615.4,1154.62L615.4,1116.76L614.545,1116.76L614.545,1113.91Z" style="fill:white;fill-rule:nonzero;"/>
        </g>
        <g transform="matrix(4.16667,0,0,4.16667,-1333.33,-4215.85)">
            <path d="M622.537,1143.42L622.537,1119.3L623.411,1119.3L623.411,1143.42L622.537,1143.42ZM623.396,1107.42L622.554,1107.42L622.554,1117.94L621.26,1117.94L621.26,1144.78L624.697,1144.78L624.697,1117.94L623.396,1117.94L623.396,1107.42Z" style="fill:white;fill-rule:nonzero;"/>
        </g>
        <g transform="matrix(4.16667,0,0,4.16667,-1333.33,-4215.85)">
            <path d="M631.937,1119.07L631.097,1119.07L631.097,1121.86L630.241,1121.86L630.241,1128.46L631.097,1128.46L631.097,1137.91L631.937,1137.91L631.937,1128.46L632.791,1128.46L632.791,1121.86L631.937,1121.86L631.937,1119.07Z" style="fill:white;fill-rule:nonzero;"/>
        </g>
        <g transform="matrix(4.16667,0,0,4.16667,-1333.33,-4215.85)">
            <path d="M638.322,1089.95L637.482,1089.95L637.482,1098.45L636.627,1098.45L636.627,1127.08L637.482,1127.08L637.482,1132.09L638.322,1132.09L638.322,1127.08L639.178,1127.08L639.178,1098.45L638.322,1098.45L638.322,1089.95Z" style="fill:white;fill-rule:nonzero;"/>
        </g>
        <g transform="matrix(4.16667,0,0,4.16667,-1333.33,-4215.85)">
            <path d="M645.165,1112.42L645.165,1095.2L646.03,1095.2L646.03,1112.42L645.165,1112.42ZM647.317,1093.83L646.015,1093.83L646.015,1088.98L645.182,1088.98L645.182,1093.83L643.879,1093.83L643.879,1113.8L647.317,1113.8L647.317,1093.83Z" style="fill:white;fill-rule:nonzero;"/>
        </g>
        <g transform="matrix(4.16667,0,0,4.16667,-1333.33,-4215.85)">
            <path d="M589,1117.8C589,1118.36 588.553,1118.8 588,1118.8C587.447,1118.8 587,1118.36 587,1117.8C587,1117.25 587.447,1116.8 588,1116.8C588.553,1116.8 589,1117.25 589,1117.8Z" style="fill:white;fill-rule:nonzero;"/>
        </g>
        <g transform="matrix(4.16667,0,0,4.16667,-1333.33,-4215.85)">
            <path d="M603,1132.8C603,1133.36 602.553,1133.8 602,1133.8C601.447,1133.8 601,1133.36 601,1132.8C601,1132.25 601.447,1131.8 602,1131.8C602.553,1131.8 603,1132.25 603,1132.8Z" style="fill:white;fill-rule:nonzero;"/>
        </g>
        <g transform="matrix(4.16667,0,0,4.16667,-1333.33,-4215.85)">
            <path d="M616,1105.8C616,1106.36 615.553,1106.8 615,1106.8C614.447,1106.8 614,1106.36 614,1105.8C614,1105.25 614.447,1104.8 615,1104.8C615.553,1104.8 616,1105.25 616,1105.8Z" style="fill:white;fill-rule:nonzero;"/>
        </g>
        <g transform="matrix(4.16667,0,0,4.16667,-1333.33,-4215.85)">
            <path d="M630,1102.8C630,1103.36 629.553,1103.8 629,1103.8C628.447,1103.8 628,1103.36 628,1102.8C628,1102.25 628.447,1101.8 629,1101.8C629.553,1101.8 630,1102.25 630,1102.8Z" style="fill:white;fill-rule:nonzero;"/>
        </g>
        <g transform="matrix(4.16667,0,0,4.16667,-1333.33,-4215.85)">
            <path d="M638,1085.8C638,1086.36 637.553,1086.8 637,1086.8C636.447,1086.8 636,1086.36 636,1085.8C636,1085.25 636.447,1084.8 637,1084.8C637.553,1084.8 638,1085.25 638,1085.8Z" style="fill:white;fill-rule:nonzero;"/>
        </g>
        <g transform="matrix(4.16667,0,0,4.16667,-1333.33,-4215.85)">
            <path d="M573,1111.8C573,1112.36 572.553,1112.8 572,1112.8C571.447,1112.8 571,1112.36 571,1111.8C571,1111.25 571.447,1110.8 572,1110.8C572.553,1110.8 573,1111.25 573,1111.8Z" style="fill:white;fill-rule:nonzero;"/>
        </g>
    </g>
</svg>
