<?xml version="1.0" encoding="UTF-8" standalone="no"?>
<!DOCTYPE svg PUBLIC "-//W3C//DTD SVG 1.1//EN" "http://www.w3.org/Graphics/SVG/1.1/DTD/svg11.dtd">
<svg width="100%" height="100%" viewBox="0 0 1489 517" version="1.1" xmlns="http://www.w3.org/2000/svg" xmlns:xlink="http://www.w3.org/1999/xlink" xml:space="preserve" xmlns:serif="http://www.serif.com/" style="fill-rule:evenodd;clip-rule:evenodd;stroke-linejoin:round;stroke-miterlimit:2;">
    <g transform="matrix(4.16667,0,0,4.16667,0,0)">
        <g transform="matrix(5.75772,0,0,5.75772,-202.2,-435.126)">
            <g transform="matrix(12,0,0,12,34.8641,88.5146)">
                <path d="M0.653,-0.7L0.488,-0.7L0.232,-0.364L0.225,-0.364L0.225,-0.7L0.064,-0.7L0.064,0.151L0.225,0.151L0.225,-0.185L0.232,-0.185L0.488,0.151L0.654,0.151C0.601,0.081 0.547,0.009 0.493,-0.064L0.333,-0.28L0.653,-0.7Z" style="fill:white;fill-rule:nonzero;"/>
            </g>
            <g transform="matrix(12,0,0,12,42.9401,88.5146)">
                <path d="M0.04,-0.065C0.04,0.06 0.133,0.153 0.246,0.153L0.57,0.153L0.57,0.013L0.279,0.013C0.225,0.013 0.187,-0.009 0.187,-0.069L0.187,-0.103L0.592,-0.103L0.592,-0.264C0.592,-0.364 0.517,-0.485 0.387,-0.485L0.245,-0.485C0.143,-0.485 0.04,-0.381 0.04,-0.259L0.04,-0.065ZM0.189,-0.228C0.189,-0.287 0.224,-0.34 0.277,-0.34L0.355,-0.34C0.41,-0.34 0.447,-0.291 0.447,-0.228L0.447,-0.221L0.189,-0.221L0.189,-0.228Z" style="fill:white;fill-rule:nonzero;"/>
            </g>
            <g transform="matrix(12,0,0,12,50.5241,88.5146)">
                <path d="M0.243,-0.485C0.131,-0.485 0.04,-0.406 0.04,-0.26L0.04,-0.094C0.04,0.052 0.131,0.131 0.243,0.131L0.429,0.131L0.429,0.139C0.429,0.195 0.389,0.228 0.339,0.228L0.076,0.228L0.076,0.367L0.362,0.367C0.482,0.367 0.565,0.287 0.565,0.152L0.565,-0.485L0.243,-0.485ZM0.428,-0.008L0.274,-0.008C0.224,-0.008 0.183,-0.054 0.183,-0.11L0.183,-0.245C0.183,-0.3 0.224,-0.346 0.274,-0.346L0.428,-0.346L0.428,-0.008Z" style="fill:white;fill-rule:nonzero;"/>
            </g>
            <g transform="matrix(12,0,0,12,57.8081,88.5146)">
                <path d="M0.613,-0.7L0.46,-0.7C0.426,-0.558 0.391,-0.419 0.357,-0.278L0.324,-0.142L0.316,-0.142L0.175,-0.7L0.022,-0.7L0.239,0.151L0.402,0.151L0.537,-0.397L0.677,0.151L0.84,0.151L1.05,-0.7L0.898,-0.7C0.852,-0.511 0.806,-0.329 0.762,-0.142L0.754,-0.142L0.613,-0.7Z" style="fill:white;fill-rule:nonzero;"/>
            </g>
            <g transform="matrix(12,0,0,12,70.7081,88.5146)">
                <path d="M0.182,-0.284C0.193,-0.324 0.215,-0.343 0.283,-0.343L0.314,-0.343C0.403,-0.343 0.415,-0.298 0.415,-0.238L0.415,-0.225L0.201,-0.225C0.094,-0.225 0.032,-0.146 0.032,-0.041C0.032,0.063 0.092,0.151 0.204,0.151L0.559,0.151L0.559,-0.268C0.559,-0.376 0.485,-0.485 0.336,-0.485L0.261,-0.485C0.116,-0.485 0.045,-0.39 0.038,-0.284L0.182,-0.284ZM0.166,-0.041C0.166,-0.084 0.188,-0.105 0.209,-0.105L0.415,-0.105L0.415,0.022L0.209,0.022C0.188,0.022 0.166,0.001 0.166,-0.041Z" style="fill:white;fill-rule:nonzero;"/>
            </g>
            <g transform="matrix(12,0,0,12,77.9681,88.5146)">
                <path d="M0.022,-0.342L0.14,-0.342L0.14,0.151L0.287,0.151L0.287,-0.342L0.405,-0.342L0.405,-0.485L0.287,-0.485L0.287,-0.7L0.14,-0.7L0.14,-0.485L0.022,-0.485L0.022,-0.342Z" style="fill:white;fill-rule:nonzero;"/>
            </g>
            <g transform="matrix(12,0,0,12,83.0681,88.5146)">
                <path d="M0.315,0.007L0.264,0.007C0.211,0.007 0.172,-0.032 0.172,-0.086L0.172,-0.249C0.172,-0.303 0.211,-0.342 0.264,-0.342L0.315,-0.342C0.357,-0.342 0.386,-0.32 0.395,-0.284L0.543,-0.284C0.531,-0.408 0.449,-0.485 0.315,-0.485L0.264,-0.485C0.119,-0.485 0.029,-0.394 0.029,-0.253L0.029,-0.082C0.029,0.059 0.119,0.151 0.264,0.151L0.315,0.151C0.446,0.151 0.528,0.074 0.542,-0.047L0.394,-0.047C0.385,-0.013 0.355,0.007 0.315,0.007Z" style="fill:white;fill-rule:nonzero;"/>
            </g>
            <g transform="matrix(12,0,0,12,89.8361,88.5146)">
                <path d="M0.33,-0.343C0.417,-0.343 0.434,-0.298 0.434,-0.238L0.434,0.151L0.575,0.151L0.575,-0.268C0.575,-0.376 0.5,-0.485 0.352,-0.485L0.277,-0.485C0.246,-0.485 0.218,-0.48 0.194,-0.472L0.194,-0.7L0.054,-0.7L0.054,0.151L0.194,0.151L0.194,-0.238C0.194,-0.298 0.211,-0.343 0.299,-0.343L0.33,-0.343Z" style="fill:white;fill-rule:nonzero;"/>
            </g>
        </g>
    </g>
</svg>
